# xmcd
#
# Track frame offsets: 
#        150
#        12422
#        26701
#        50436
#        63339
#        74969
#        87071
#        108319
#        120186
#        131788
#        146133
#        158256
#        169974
#        182251
#        200777
#        213382
#        242571
#        255492
#        266409
#        279939
#        301371
#
# Disc length: 4225 seconds
#
# Revision: 4
# Processed by: cddbd v1.5.2PL0 Copyright (c) Steve Scherf et al.
# Submitted via: ExactAudioCopy v1.0b3
#
DISCID=29107f15
DTITLE=Various Artist - Mean Old World-The Blues (1940-1994) [Volume 3]
DYEAR=1996
DGENRE=Blues
TTITLE0=Elizabeth Cotton - Freight Train
TTITLE1=Champion Jack Dupree - Junker's Blues
TTITLE2=Jimmy Witherspoon - Sweet's Blues
TTITLE3=Sonny Terry And Brownie McGhee - Living With The Blues
TTITLE4=Fred McDowell - Shake 'Em On Down
TTITLE5=Howlin' Wolf - Spoonful
TTITLE6=Robert Pete Williams - Pardon Denied Again
TTITLE7=Mance Lipscomb - Freddie
TTITLE8=Freddie King - Hide Away
TTITLE9=Lightnin' Hopkins - Goin' Back To Florida
TTITLE10=Sonny Boy Williamson - Trust My Baby
TTITLE11=Junior Parker - Drivin' Wheel
TTITLE12=Jimmy Reed - Bright Lights, Big City
TTITLE13=Bobby Bland - Stormy Monday Blues
TTITLE14=Albert Collins - Tongue Lashing
TTITLE15=B.B. King - Worry, Worry
TTITLE16=Slim Harpo - Baby Scratch My Back
TTITLE17=Jimmy McCracklin - Think
TTITLE18=Koko Taylor - Wang Dang Doodle
TTITLE19=Junior Wells - Early In The Morning
TTITLE20=Johny Shines - Sweet Home Chicago
EXTD=
EXTT0=
EXTT1=
EXTT2=
EXTT3=
EXTT4=
EXTT5=
EXTT6=
EXTT7=
EXTT8=
EXTT9=
EXTT10=
EXTT11=
EXTT12=
EXTT13=
EXTT14=
EXTT15=
EXTT16=
EXTT17=
EXTT18=
EXTT19=
EXTT20=
PLAYORDER=
